<svg aria-hidden="true" data-prefix="fab" data-icon="extendedhand" class="svg-inline--fa fa-w-16" xmlns="http://www.w3.org/2000/svg" viewBox="0 0 160.26 99.92"><defs><style>.cls-1,.cls-2{fill:#282828;stroke:#282828;}.cls-1,.cls-2,.cls-3{stroke-miterlimit:10;}.cls-1{stroke-width:1.5px;}</style></defs><title>EH_Logo</title><path class="cls-1" d="M61.42,191.17l21.67,2c-1.17,18.16-2.22,26.31,15.33,29.33,30,5.17,71,2,71,2-71.33,14.17-95.33,8-95.33,8C45.26,224.83,61.42,191.17,61.42,191.17Z" transform="translate(-36.59 -134.67)"/><path class="cls-2" d="M82.76,186.17c24.16,4.16,18.71,4.53,37.66,5,33.5.83,53.62,1.83,58.67-5v-3c-14.33-17.67-68.27-48-80-48-11,0-19,14-19,14l15.33,11,6.67-10.67c5.67-7.33,15.67,2,15.67,2a82.07,82.07,0,0,1,17,18c2.5,4.83-5.17,3.33-5.17,3.33-29.17-.83-44.17-13-44.17-13-14.16-8.5-20-18.66-20-18.66l-5.71-4.88c-3.12-.62-2.8,2.13-2.8,2.13,0,1.81,6.3,7.62,6.3,7.62l.75,1.13c0,2.06-3.37.25-3.37.25l-10.5-6.88c-4.38-.93-4.63,1.88-4.63,1.88-.25,2.75,11.32,8.87,11.45,9.25a28.45,28.45,0,0,0,2.8,2.75c.5,3.5-2.8,1.25-2.8,1.25l-16.07-6.13c-3.69,0-3.75,1.5-3.75,1.5-.25,3.38,13.25,9,13.25,9l3.5,2.13c4.25,2.75.62,2.5.62,2.5-5.06-.06-14.5-3.13-14.5-3.13-3.93.25-2,3.88-2,3.88,2,2.5,16.13,7.25,16.13,7.25,6.06,3.56,5.25,5.62,5.25,5.62a13,13,0,0,1-4.13,6.88l-2.37,3c-1.38,1.56,0,4.5,0,4.5.75,1.94,5.12-1.5,5.12-1.5,2.07-1.19,6-4.25,6-4.25a13.1,13.1,0,0,1,7.63-1.38Z" transform="translate(-36.59 -134.67)"/></svg>
