<?xml version="1.0" encoding="UTF-8" standalone="no"?>
<!DOCTYPE svg PUBLIC "-//W3C//DTD SVG 1.1//EN" "http://www.w3.org/Graphics/SVG/1.1/DTD/svg11.dtd">
<svg version="1.1" xmlns="http://www.w3.org/2000/svg" xmlns:xlink="http://www.w3.org/1999/xlink" preserveAspectRatio="xMidYMid meet" viewBox="0 0 640 640" width="24" height="24"><defs><path d="M539.3 87.54C568.25 119.12 268.25 133.16 123.51 118.25C27.02 108.3 15.03 137.84 87.54 206.84C248.95 350.12 372.63 424.09 458.6 428.77C544.56 433.45 572.34 458.89 541.93 505.09C526.73 522.63 502.75 534.62 470 541.05C420.88 550.7 276.14 538.42 101.58 518.25C-72.98 498.07 346.32 442.81 480.53 445.44C614.74 448.07 584.91 457.72 236.67 236.67C4.5 89.3 86.96 28.48 484.04 54.21C501.58 55.38 520 66.49 539.3 87.54Z" id="d1zw4PdrK9"></path><path d="M341.05 277.46C341.05 298.03 324.35 314.74 303.77 314.74C283.2 314.74 266.49 298.03 266.49 277.46C266.49 256.88 283.2 240.18 303.77 240.18C324.35 240.18 341.05 256.88 341.05 277.46Z" id="a1lBjylNyX"></path></defs><g><g><g><g><use xlink:href="#d1zw4PdrK9" opacity="1" fill-opacity="0" stroke="#38cf3b" stroke-width="7" stroke-opacity="1"></use></g></g><g><use xlink:href="#a1lBjylNyX" opacity="1" fill="#f0fc06" fill-opacity="1"></use></g></g></g></svg>